<?xml version="1.0" encoding="utf-8"?>
<svg xmlns="http://www.w3.org/2000/svg" style="margin: auto; background: none; display: block; shape-rendering: auto;" width="527" height="250" preserveAspectRatio="xMidYMid">
<style type="text/css">
  text {
    text-anchor: middle; font-size: 80px; opacity: 0;
  }
</style>
<g style="transform-origin:263.5px 125px;transform:scale(1)">
<g transform="translate(263.5,125)">
  <g transform="translate(0,0)"><g class="path" style="transform: scale(0.91); transform-origin: -117.36px 1.7776px; animation: 1s linear -0.5775s infinite normal forwards running breath-6b4e6727-9b1d-4064-a69e-2cf394007787;"><path d="M17.16-14.56L17.16-14.56L17.16-14.56Q14.96-16.24 13.28-19.68L13.28-19.68L13.28-19.68Q11.60-23.12 11.60-27.44L11.60-27.44L11.60-27.44Q11.60-31.76 12.96-35.44L12.96-35.44L12.96-35.44Q14.32-39.12 17-42.12L17-42.12L17-42.12Q19.68-45.12 24.16-46.92L24.16-46.92L24.16-46.92Q28.64-48.72 33.68-48.72L33.68-48.72L33.68-48.72Q38.72-48.72 42.80-47.96L42.80-47.96L42.80-47.96Q46.88-47.20 49.20-46.36L49.20-46.36L49.20-46.36Q51.52-45.52 53.32-44.76L53.32-44.76L53.32-44.76Q55.12-44 56.24-43.56L56.24-43.56L56.24-43.56Q57.36-43.12 57.60-43.04L57.60-43.04L57.60-43.04Q57.84-42.96 58.88-42.56L58.88-42.56L58.88-42.56Q59.92-42.16 60.28-42.08L60.28-42.08L60.28-42.08Q60.64-42 61.56-41.68L61.56-41.68L61.56-41.68Q62.48-41.36 63-41.28L63-41.28L63-41.28Q63.52-41.20 64.40-41L64.40-41L64.40-41Q65.28-40.80 65.92-40.76L65.92-40.76L65.92-40.76Q66.56-40.72 67.44-40.64L67.44-40.64L67.44-40.64Q68.32-40.56 69.12-40.56L69.12-40.56L69.12-40.56Q73.04-40.56 75.96-41.88L75.96-41.88L75.96-41.88Q78.88-43.20 80.20-44.80L80.20-44.80L80.20-44.80Q81.52-46.40 82.32-48.48L82.32-48.48L82.32-48.48Q83.28-51.04 83.28-53.12L83.28-53.12L85.04-53.12L85.04-53.12Q85.04-51.20 84.04-48.44L84.04-48.44L84.04-48.44Q83.04-45.68 81.56-43.80L81.56-43.80L81.56-43.80Q80.08-41.92 76.80-40.40L76.80-40.40L76.80-40.40Q73.52-38.88 69-38.88L69-38.88L69-38.88Q64.48-38.88 59.92-40.32L59.92-40.32L59.92-40.32Q54.48-32.64 48.48-9.36L48.48-9.36L48.48-9.36Q45.52 2.32 39.96 7.64L39.96 7.64L39.96 7.64Q34.40 12.96 23.88 12.96L23.88 12.96L23.88 12.96Q13.36 12.96 8.16 6.56L8.16 6.56L8.16 6.56Q3.60 0.88 3.60-6.64L3.60-6.64L3.60-6.64Q3.60-7.60 3.68-8.56L3.68-8.56L5.52-8.56L5.52-7.44L5.52-7.44Q5.52-1.92 8.48 3.36L8.48 3.36L8.48 3.36Q9.76 5.60 11.56 7.24L11.56 7.24L11.56 7.24Q13.36 8.88 16.40 10L16.40 10L16.40 10Q19.44 11.12 23.20 11.12L23.20 11.12L23.20 11.12Q29.44 11.12 33.08 6.08L33.08 6.08L33.08 6.08Q36.72 1.04 40.12-13.40L40.12-13.40L40.12-13.40Q43.52-27.84 47.08-34.04L47.08-34.04L47.08-34.04Q50.64-40.24 57.44-41.20L57.44-41.20L57.44-41.20Q55.36-42 53.04-43L53.04-43L53.04-43Q50.72-44 48.60-44.76L48.60-44.76L48.60-44.76Q46.48-45.52 42.52-46.28L42.52-46.28L42.52-46.28Q38.56-47.04 33.68-47.04L33.68-47.04L33.68-47.04Q28.80-47.04 24.60-45.28L24.60-45.28L24.60-45.28Q20.40-43.52 18.08-40.64L18.08-40.64L18.08-40.64Q13.44-35.04 13.44-27.68L13.44-27.68L13.44-27.68Q13.44-23.52 14.96-20.36L14.96-20.36L14.96-20.36Q16.48-17.20 18.64-15.68L18.64-15.68L18.64-15.68Q23.04-12.72 26.64-12.32L26.64-12.32L28.16-12.16L27.68-10.40L27.68-10.40Q25.68-10.40 22.52-11.64L22.52-11.64L22.52-11.64Q19.36-12.88 17.16-14.56" fill="#456caa" stroke="none" stroke-width="none" transform="translate(-161.67999267578125,21.857599449157714)" style="fill: rgb(69, 108, 170);"></path></g><g class="path" style="transform: scale(0.91); transform-origin: -78.24px 6.2976px; animation: 1s linear -0.495s infinite normal forwards running breath-6b4e6727-9b1d-4064-a69e-2cf394007787;"><path d="M70.08-27.28L68.88-28.24L68.88-28.24Q71.28-31.12 74.92-31.12L74.92-31.12L74.92-31.12Q78.56-31.12 80.56-29.28L80.56-29.28L80.56-29.28Q82.56-27.44 82.56-24.08L82.56-24.08L82.56-23.60L82.56-23.60Q86.16-31.12 91.92-31.12L91.92-31.12L91.92-31.12Q98.08-31.12 98.08-24.72L98.08-24.72L98.08-24.72Q98.08-22.08 96.32-19.12L96.32-19.12L96.32-19.12Q94.56-16.16 92.80-13.48L92.80-13.48L92.80-13.48Q91.04-10.80 91.04-8.72L91.04-8.72L89.12-8.72L89.12-8.72Q89.12-11.68 92.56-16.72L92.56-16.72L92.56-16.72Q96-21.76 96-24.52L96-24.52L96-24.52Q96-27.28 94.92-28.28L94.92-28.28L94.92-28.28Q93.84-29.28 91.72-29.28L91.72-29.28L91.72-29.28Q89.60-29.28 87.56-27.44L87.56-27.44L87.56-27.44Q85.52-25.60 84.16-22.80L84.16-22.80L84.16-22.80Q82-18.64 81.28-16L81.28-16L81.28-15.92L78.40 0L68.80 0L74.08-29.52L74.08-29.52Q71.68-29.28 70.08-27.28L70.08-27.28" fill="#456caa" stroke="none" stroke-width="none" transform="translate(-161.67999267578125,21.857599449157714)" style="fill: rgb(136, 162, 206);"></path></g><g class="path" style="transform: scale(0.91); transform-origin: -48.16px 6.6576px; animation: 1s linear -0.4125s infinite normal forwards running breath-6b4e6727-9b1d-4064-a69e-2cf394007787;"><path d="M117.04-31.12L117.04-31.12L117.04-31.12Q127.20-31.12 127.20-23.04L127.20-23.04L127.20-23.04Q127.20-18 122.44-15.40L122.44-15.40L122.44-15.40Q117.68-12.80 108.88-12.72L108.88-12.72L108.88-12.72Q108.72-9.84 108.72-8.16L108.72-8.16L108.72-8.16Q108.72-4.56 110.36-2.84L110.36-2.84L110.36-2.84Q112-1.12 114.48-1.12L114.48-1.12L114.48-1.12Q116.96-1.12 119-2.08L119-2.08L119-2.08Q121.04-3.04 122.24-4.36L122.24-4.36L122.24-4.36Q123.44-5.68 124.32-7.12L124.32-7.12L124.32-7.12Q125.92-9.76 125.92-10.48L125.92-10.48L127.36-9.84L127.36-9.84Q127.12-8.56 125.92-6.44L125.92-6.44L125.92-6.44Q124.72-4.32 123.28-2.96L123.28-2.96L123.28-2.96Q121.84-1.60 119.04-0.44L119.04-0.44L119.04-0.44Q116.24 0.72 112.80 0.72L112.80 0.72L112.80 0.72Q106.32 0.72 103-2.36L103-2.36L103-2.36Q99.68-5.44 99.68-10.80L99.68-10.80L99.68-10.80Q99.68-20.32 104.40-25.72L104.40-25.72L104.40-25.72Q109.12-31.12 117.04-31.12zM125.20-23.04L125.20-23.04Q125.20-25.68 123.64-27.40L123.64-27.40L123.64-27.40Q122.08-29.12 119-29.12L119-29.12L119-29.12Q115.92-29.12 113-25.44L113-25.44L113-25.44Q110.08-21.76 109.12-14.56L109.12-14.56L109.12-14.56Q125.20-14.64 125.20-23.04L125.20-23.04" fill="#456caa" stroke="none" stroke-width="none" transform="translate(-161.67999267578125,21.857599449157714)" style="fill: rgb(104, 119, 144);"></path></g><g class="path" style="transform: scale(0.91); transform-origin: -16.4px 6.6576px; animation: 1s linear -0.33s infinite normal forwards running breath-6b4e6727-9b1d-4064-a69e-2cf394007787;"><path d="M148.80-31.12L148.80-31.12L148.80-31.12Q158.96-31.12 158.96-23.04L158.96-23.04L158.96-23.04Q158.96-18 154.20-15.40L154.20-15.40L154.20-15.40Q149.44-12.80 140.64-12.72L140.64-12.72L140.64-12.72Q140.48-9.84 140.48-8.16L140.48-8.16L140.48-8.16Q140.48-4.56 142.12-2.84L142.12-2.84L142.12-2.84Q143.76-1.12 146.24-1.12L146.24-1.12L146.24-1.12Q148.72-1.12 150.76-2.08L150.76-2.08L150.76-2.08Q152.80-3.04 154-4.36L154-4.36L154-4.36Q155.20-5.68 156.08-7.12L156.08-7.12L156.08-7.12Q157.68-9.76 157.68-10.48L157.68-10.48L159.12-9.84L159.12-9.84Q158.88-8.56 157.68-6.44L157.68-6.44L157.68-6.44Q156.48-4.32 155.04-2.96L155.04-2.96L155.04-2.96Q153.60-1.60 150.80-0.44L150.80-0.44L150.80-0.44Q148 0.72 144.56 0.72L144.56 0.72L144.56 0.72Q138.08 0.72 134.76-2.36L134.76-2.36L134.76-2.36Q131.44-5.44 131.44-10.80L131.44-10.80L131.44-10.80Q131.44-20.32 136.16-25.72L136.16-25.72L136.16-25.72Q140.88-31.12 148.80-31.12zM156.96-23.04L156.96-23.04Q156.96-25.68 155.40-27.40L155.40-27.40L155.40-27.40Q153.84-29.12 150.76-29.12L150.76-29.12L150.76-29.12Q147.68-29.12 144.76-25.44L144.76-25.44L144.76-25.44Q141.84-21.76 140.88-14.56L140.88-14.56L140.88-14.56Q156.96-14.64 156.96-23.04L156.96-23.04" fill="#456caa" stroke="none" stroke-width="none" transform="translate(-161.67999267578125,21.857599449157714)" style="fill: rgb(254, 254, 254);"></path></g><g class="path" style="transform: scale(0.91); transform-origin: 38.32px 4.2576px; animation: 1s linear -0.2475s infinite normal forwards running breath-6b4e6727-9b1d-4064-a69e-2cf394007787;"><path d="M205.04-44.24L205.04-44.24L205.04-44.24Q198.72-46.96 191.32-46.96L191.32-46.96L191.32-46.96Q183.92-46.96 179.32-42.24L179.32-42.24L179.32-42.24Q174.72-37.52 174.72-29.92L174.72-29.92L172.96-29.92L172.96-29.92Q172.96-38.24 178.08-43.48L178.08-43.48L178.08-43.48Q183.20-48.72 191.20-48.72L191.20-48.72L191.20-48.72Q197.60-48.72 205.04-46.24L205.04-46.24L205.04-46.24Q213.60-43.12 223.60-43.12L223.60-43.12L223.60-41.44L223.60-41.44Q217.60-41.44 214-42L214-42L214-42Q213.92-41.68 213.44-39.36L213.44-39.36L213.44-39.36Q210.48-26.24 208.64-18.48L208.64-18.48L230.08-18.48L238.24-53.20L239.92-53.20L228.72-5.12L228.72-5.12Q228-2.16 228-1.12L228-1.12L228-1.12Q228 2.24 231.12 2.24L231.12 2.24L231.12 2.24Q233.36 2.24 235.04-0.08L235.04-0.08L236.16 0.88L236.16 0.88Q235.60 1.92 234.16 2.84L234.16 2.84L234.16 2.84Q232.72 3.76 230.68 3.76L230.68 3.76L230.68 3.76Q228.64 3.76 227.48 2.40L227.48 2.40L227.48 2.40Q226.32 1.04 226.32-0.88L226.32-0.88L227.28-6.16L229.76-17.04L208.24-17.04L208.24-17.04Q207.36-13.68 206.48-9.76L206.48-9.76L206.48-9.76Q205.60-5.84 204.36-2.08L204.36-2.08L204.36-2.08Q203.12 1.68 200.96 5.68L200.96 5.68L200.96 5.68Q198.80 9.68 196.12 12.20L196.12 12.20L196.12 12.20Q193.44 14.72 189.40 16.36L189.40 16.36L189.40 16.36Q185.36 18 180.68 18L180.68 18L180.68 18Q176 18 171.84 16.24L171.84 16.24L171.84 16.24Q167.68 14.48 164.88 11.36L164.88 11.36L164.88 11.36Q160.08 5.84 160.08-2L160.08-2L160.08-2Q160.08-3.28 160.16-4.56L160.16-4.56L161.92-4.32L161.92-4.32Q161.84-3.20 161.84-2.08L161.84-2.08L161.84-2.08Q161.84 5.36 166.36 10.36L166.36 10.36L166.36 10.36Q170.88 15.36 178.56 15.36L178.56 15.36L178.56 15.36Q186.24 15.36 189.36 11.28L189.36 11.28L189.36 11.28Q192.48 7.20 195.32-4.40L195.32-4.40L195.32-4.40Q198.16-16 205.04-44.24" fill="#456caa" stroke="none" stroke-width="none" transform="translate(-161.67999267578125,21.857599449157714)" style="fill: rgb(69, 108, 170);"></path></g><g class="path" style="transform: scale(0.91); transform-origin: 95.84px 6.6576px; animation: 1s linear -0.165s infinite normal forwards running breath-6b4e6727-9b1d-4064-a69e-2cf394007787;"><path d="M254.40 0.72L254.40 0.72Q248.24 0.72 245.04-2.36L245.04-2.36L245.04-2.36Q241.84-5.44 241.84-10.12L241.84-10.12L241.84-10.12Q241.84-14.80 242.68-18.12L242.68-18.12L242.68-18.12Q243.52-21.44 245.44-24.52L245.44-24.52L245.44-24.52Q247.36-27.60 251.24-29.36L251.24-29.36L251.24-29.36Q255.12-31.12 260.92-31.12L260.92-31.12L260.92-31.12Q266.72-31.12 269.96-28.04L269.96-28.04L269.96-28.04Q273.20-24.96 273.20-19.60L273.20-19.60L273.20-19.60Q273.20-10.48 268.36-4.88L268.36-4.88L268.36-4.88Q263.52 0.72 254.40 0.72L254.40 0.72zM250.88-7.52L250.88-7.52L250.88-7.52Q250.88-1.12 254.60-1.12L254.60-1.12L254.60-1.12Q258.32-1.12 261.24-7.56L261.24-7.56L261.24-7.56Q264.16-14 264.16-22.88L264.16-22.88L264.16-22.88Q264.16-29.60 260.52-29.60L260.52-29.60L260.52-29.60Q256.88-29.60 253.88-23.48L253.88-23.48L253.88-23.48Q250.88-17.36 250.88-7.52" fill="#456caa" stroke="none" stroke-width="none" transform="translate(-161.67999267578125,21.857599449157714)" style="fill: rgb(136, 162, 206);"></path></g><g class="path" style="transform: scale(0.91); transform-origin: 127px -3.7024px; animation: 1s linear -0.0825s infinite normal forwards running breath-6b4e6727-9b1d-4064-a69e-2cf394007787;"><path d="M291.76-2.88L291.76-2.88L291.76-2.88Q290.72-1.52 288.92-0.40L288.92-0.40L288.92-0.40Q287.12 0.72 284.24 0.72L284.24 0.72L284.24 0.72Q281.36 0.72 279.36-1.12L279.36-1.12L279.36-1.12Q277.36-2.96 277.36-6.32L277.36-6.32L277.36-6.32Q277.36-6.96 277.52-8.40L277.52-8.40L282.72-37.20L282.72-37.20Q284.16-45.12 286.68-48.48L286.68-48.48L286.68-48.48Q289.20-51.84 293.36-51.84L293.36-51.84L293.36-51.84Q296.24-51.84 298.12-49.68L298.12-49.68L298.12-49.68Q300-47.52 300-43.12L300-43.12L300-43.12Q300-38.72 296.60-30.56L296.60-30.56L296.60-30.56Q293.20-22.40 293.20-18.64L293.20-18.64L291.76-18.64L291.76-18.64Q291.76-22.88 295.12-30.76L295.12-30.76L295.12-30.76Q298.48-38.64 298.48-43.36L298.48-43.36L298.48-43.36Q298.48-46.24 297.16-48.32L297.16-48.32L297.16-48.32Q295.84-50.40 293.92-50.40L293.92-50.40L293.92-50.40Q293.84-48.32 291.16-31.72L291.16-31.72L291.16-31.72Q288.48-15.12 285.84-0.88L285.84-0.88L285.84-0.88Q288.08-0.88 290-3.20L290-3.20L290-3.20Q291.92-5.52 292.72-7.84L292.72-7.84L293.60-10.24L295.04-9.60L295.04-9.60Q294.80-8.48 293.80-6.36L293.80-6.36L293.80-6.36Q292.80-4.24 291.76-2.88" fill="#456caa" stroke="none" stroke-width="none" transform="translate(-161.67999267578125,21.857599449157714)" style="fill: rgb(104, 119, 144);"></path></g><g class="path" style="transform: scale(0.91); transform-origin: 151.44px 6.6576px; animation: 1s linear 0s infinite normal forwards running breath-6b4e6727-9b1d-4064-a69e-2cf394007787;"><path d="M316.64-31.12L316.64-31.12L316.64-31.12Q326.80-31.12 326.80-23.04L326.80-23.04L326.80-23.04Q326.80-18 322.04-15.40L322.04-15.40L322.04-15.40Q317.28-12.80 308.48-12.72L308.48-12.72L308.48-12.72Q308.32-9.84 308.32-8.16L308.32-8.16L308.32-8.16Q308.32-4.56 309.96-2.84L309.96-2.84L309.96-2.84Q311.60-1.12 314.08-1.12L314.08-1.12L314.08-1.12Q316.56-1.12 318.60-2.08L318.60-2.08L318.60-2.08Q320.64-3.04 321.84-4.36L321.84-4.36L321.84-4.36Q323.04-5.68 323.92-7.12L323.92-7.12L323.92-7.12Q325.52-9.76 325.52-10.48L325.52-10.48L326.96-9.84L326.96-9.84Q326.72-8.56 325.52-6.44L325.52-6.44L325.52-6.44Q324.32-4.32 322.88-2.96L322.88-2.96L322.88-2.96Q321.44-1.60 318.64-0.44L318.64-0.44L318.64-0.44Q315.84 0.72 312.40 0.72L312.40 0.72L312.40 0.72Q305.92 0.72 302.60-2.36L302.60-2.36L302.60-2.36Q299.28-5.44 299.28-10.80L299.28-10.80L299.28-10.80Q299.28-20.32 304-25.72L304-25.72L304-25.72Q308.72-31.12 316.64-31.12zM324.80-23.04L324.80-23.04Q324.80-25.68 323.24-27.40L323.24-27.40L323.24-27.40Q321.68-29.12 318.60-29.12L318.60-29.12L318.60-29.12Q315.52-29.12 312.60-25.44L312.60-25.44L312.60-25.44Q309.68-21.76 308.72-14.56L308.72-14.56L308.72-14.56Q324.80-14.64 324.80-23.04L324.80-23.04" fill="#456caa" stroke="none" stroke-width="none" transform="translate(-161.67999267578125,21.857599449157714)" style="fill: rgb(254, 254, 254);"></path></g></g>
</g>
</g>
<style id="breath-6b4e6727-9b1d-4064-a69e-2cf394007787" data-anikit="">@keyframes breath-6b4e6727-9b1d-4064-a69e-2cf394007787
{
  0% {
    animation-timing-function: cubic-bezier(0.9647,0.2413,-0.0705,0.7911);
    transform: scale(0.9099999999999999);
  }
  51% {
    animation-timing-function: cubic-bezier(0.9226,0.2631,-0.0308,0.7628);
    transform: scale(1.02994);
  }
  100% {
    transform: scale(0.9099999999999999);
  }
}</style></svg>